<svg id="wave" style="transform:rotate(0deg); transition: 0.3s" viewBox="0 0 1440 180" version="1.1" xmlns="http://www.w3.org/2000/svg"><defs><linearGradient id="sw-gradient-0" x1="0" x2="0" y1="1" y2="0"><stop stop-color="rgba(255, 255, 255, 1)" offset="0%"></stop><stop stop-color="rgba(255, 255, 255, 1)" offset="100%"></stop></linearGradient></defs><path style="transform:translate(0, 0px); opacity:1" fill="url(#sw-gradient-0)" d="M0,36L60,45C120,54,240,72,360,90C480,108,600,126,720,114C840,102,960,60,1080,42C1200,24,1320,30,1440,30C1560,30,1680,24,1800,42C1920,60,2040,102,2160,105C2280,108,2400,72,2520,75C2640,78,2760,120,2880,117C3000,114,3120,66,3240,45C3360,24,3480,30,3600,51C3720,72,3840,108,3960,120C4080,132,4200,120,4320,102C4440,84,4560,60,4680,42C4800,24,4920,12,5040,21C5160,30,5280,60,5400,72C5520,84,5640,78,5760,72C5880,66,6000,60,6120,66C6240,72,6360,90,6480,90C6600,90,6720,72,6840,63C6960,54,7080,54,7200,54C7320,54,7440,54,7560,60C7680,66,7800,78,7920,78C8040,78,8160,66,8280,63C8400,60,8520,66,8580,69L8640,72L8640,180L8580,180C8520,180,8400,180,8280,180C8160,180,8040,180,7920,180C7800,180,7680,180,7560,180C7440,180,7320,180,7200,180C7080,180,6960,180,6840,180C6720,180,6600,180,6480,180C6360,180,6240,180,6120,180C6000,180,5880,180,5760,180C5640,180,5520,180,5400,180C5280,180,5160,180,5040,180C4920,180,4800,180,4680,180C4560,180,4440,180,4320,180C4200,180,4080,180,3960,180C3840,180,3720,180,3600,180C3480,180,3360,180,3240,180C3120,180,3000,180,2880,180C2760,180,2640,180,2520,180C2400,180,2280,180,2160,180C2040,180,1920,180,1800,180C1680,180,1560,180,1440,180C1320,180,1200,180,1080,180C960,180,840,180,720,180C600,180,480,180,360,180C240,180,120,180,60,180L0,180Z"></path></svg>